<?xml version="1.0" ?><svg height="32px" version="1.1" viewBox="0 0 32 32" width="32px" xmlns="http://www.w3.org/2000/svg" xmlns:xlink="http://www.w3.org/1999/xlink"><title/><desc/><defs/><g fill="none" fill-rule="evenodd" id="Page-1" stroke="none" stroke-width="1"><g id="letter-W"><g id="Page-1" transform="translate(2.000000, 6.000000)"><path d="M5.2053,3.5299 L8.3783,14.4019 L11.2653,4.2959 C11.5743,3.2389 11.8033,2.5169 11.9513,2.1309 C12.1003,1.7449 12.3793,1.3759 12.7893,1.0259 C13.1993,0.6749 13.7603,0.4999 14.4733,0.4999 C15.1983,0.4999 15.7653,0.6749 16.1753,1.0259 C16.5853,1.3759 16.8733,1.7569 17.0403,2.1669 C17.2063,2.5759 17.4383,3.2859 17.7353,4.2959 L20.6223,14.4019 L23.8303,3.5299 C24.0443,2.7459 24.2163,2.1779 24.3473,1.8279 C24.4783,1.4769 24.6973,1.1679 25.0063,0.9009 C25.3153,0.6339 25.7613,0.4999 26.3433,0.4999 C26.9253,0.4999 27.4303,0.7019 27.8583,1.1059 C28.2863,1.5099 28.5003,1.9849 28.5003,2.5319 C28.5003,3.0309 28.3163,3.7849 27.9473,4.7949 L23.9733,16.4519 C23.6283,17.4379 23.3613,18.1509 23.1713,18.5899 C22.9813,19.0299 22.6803,19.4219 22.2713,19.7669 C21.8613,20.1109 21.2993,20.2839 20.5863,20.2839 C19.8503,20.2839 19.2703,20.0989 18.8493,19.7309 C18.4273,19.3629 18.1153,18.9109 17.9133,18.3769 C17.7113,17.8419 17.4913,17.1469 17.2533,16.2909 L14.4733,6.8089 L11.7823,16.2909 C11.4253,17.6099 11.0393,18.6049 10.6233,19.2769 C10.2073,19.9479 9.4773,20.2839 8.4313,20.2839 C7.8963,20.2839 7.4423,20.1799 7.0683,19.9719 C6.6933,19.7639 6.3813,19.4669 6.1323,19.0809 C5.8823,18.6939 5.6623,18.2369 5.4723,17.7079 C5.2823,17.1789 5.1343,16.7609 5.0273,16.4519 L1.0883,4.7949 C0.6963,3.7019 0.5003,2.9479 0.5003,2.5319 C0.5003,2.0089 0.7083,1.5399 1.1243,1.1239 C1.5393,0.7079 2.0503,0.4999 2.6563,0.4999 C3.4643,0.4999 4.0113,0.7289 4.2963,1.1859 C4.5813,1.6439 4.8843,2.4249 5.2053,3.5299" fill="#2FBBF4" id="Fill-1"/><path d="M5.2053,3.5299 L8.3783,14.4019 L11.2653,4.2959 C11.5743,3.2389 11.8033,2.5169 11.9513,2.1309 C12.1003,1.7449 12.3793,1.3759 12.7893,1.0259 C13.1993,0.6749 13.7603,0.4999 14.4733,0.4999 C15.1983,0.4999 15.7653,0.6749 16.1753,1.0259 C16.5853,1.3759 16.8733,1.7569 17.0403,2.1669 C17.2063,2.5759 17.4383,3.2859 17.7353,4.2959 L20.6223,14.4019 L23.8303,3.5299 C24.0443,2.7459 24.2163,2.1779 24.3473,1.8279 C24.4783,1.4769 24.6973,1.1679 25.0063,0.9009 C25.3153,0.6339 25.7613,0.4999 26.3433,0.4999 C26.9253,0.4999 27.4303,0.7019 27.8583,1.1059 C28.2863,1.5099 28.5003,1.9849 28.5003,2.5319 C28.5003,3.0309 28.3163,3.7849 27.9473,4.7949 L23.9733,16.4519 C23.6283,17.4379 23.3613,18.1509 23.1713,18.5899 C22.9813,19.0299 22.6803,19.4219 22.2713,19.7669 C21.8613,20.1109 21.2993,20.2839 20.5863,20.2839 C19.8503,20.2839 19.2703,20.0989 18.8493,19.7309 C18.4273,19.3629 18.1153,18.9109 17.9133,18.3769 C17.7113,17.8419 17.4913,17.1469 17.2533,16.2909 L14.4733,6.8089 L11.7823,16.2909 C11.4253,17.6099 11.0393,18.6049 10.6233,19.2769 C10.2073,19.9479 9.4773,20.2839 8.4313,20.2839 C7.8963,20.2839 7.4423,20.1799 7.0683,19.9719 C6.6933,19.7639 6.3813,19.4669 6.1323,19.0809 C5.8823,18.6939 5.6623,18.2369 5.4723,17.7079 C5.2823,17.1789 5.1343,16.7609 5.0273,16.4519 L1.0883,4.7949 C0.6963,3.7019 0.5003,2.9479 0.5003,2.5319 C0.5003,2.0089 0.7083,1.5399 1.1243,1.1239 C1.5393,0.7079 2.0503,0.4999 2.6563,0.4999 C3.4643,0.4999 4.0113,0.7289 4.2963,1.1859 C4.5813,1.6439 4.8843,2.4249 5.2053,3.5299 L5.2053,3.5299 Z" id="Stroke-3" stroke="#092933" stroke-linecap="round" stroke-linejoin="round"/><path d="M17.7356,16.1571 C17.9686,16.9961 18.1856,17.6831 18.3816,18.2001 C18.5526,18.6551 18.8206,19.0431 19.1776,19.3541 C19.5046,19.6391 19.9786,19.7841 20.5866,19.7841 C21.1746,19.7841 21.6326,19.6491 21.9486,19.3841 C22.2976,19.0911 22.5536,18.7581 22.7126,18.3921 C22.8956,17.9681 23.1606,17.2601 23.4996,16.2911 C23.4996,16.2911 22.2976,18.0911 21.9486,18.3841 C21.6326,18.6491 21.1746,18.7841 20.5866,18.7841 C19.9786,18.7841 19.5046,18.6391 19.1776,18.3541 C18.8206,18.0431 17.7356,16.1571 17.7356,16.1571" fill="#332E09" id="Fill-5" opacity="0.203766325"/><path d="M10.1985,18.0126 C9.8775,18.5326 9.2995,18.7836 8.4315,18.7836 C7.9855,18.7836 7.6085,18.6996 7.3105,18.5336 C7.0065,18.3656 6.7585,18.1276 6.5525,17.8096 C6.3245,17.4566 5.4995,16.2876 5.4995,16.2876 C5.6065,16.5956 5.7535,17.0126 5.9435,17.5386 C6.1195,18.0296 6.3245,18.4566 6.5525,18.8096 C6.7585,19.1276 7.0065,19.3656 7.3105,19.5336 C7.6085,19.6996 7.9855,19.7836 8.4315,19.7836 C9.2995,19.7836 9.8775,19.5326 10.1985,19.0126 C10.5865,18.3866 10.9575,17.4266 11.3015,16.1546 C11.3015,16.1546 10.5865,17.3866 10.1985,18.0126" fill="#332E09" id="Fill-7" opacity="0.203766325"/><path d="M12.6404,4.826 L10.7344,11.513" id="Stroke-9" stroke="#FFFFFF" stroke-dasharray="1,2,6,2,3" stroke-linecap="round" stroke-linejoin="round"/></g></g></g></svg>